HIERARCHY
ROOT pelvis
{
  OFFSET 0 100 0
  CHANNELS 6 Xposition Yposition Zposition Zrotation Xrotation Yrotation
  JOINT pelvis_right_femur
  {
    OFFSET -10.78128 -3.44521 -0.5502486
    CHANNELS 3 Zrotation Xrotation Yrotation
    JOINT right_femur_tibia
    {
      OFFSET -0.8047443 -44.0398 -0.1307829
      CHANNELS 3 Zrotation Xrotation Yrotation
      JOINT right_tibia_foot
      {
        OFFSET 3.006224 -47.83518 -5
        CHANNELS 3 Zrotation Xrotation Yrotation
        End Site
        {
          OFFSET 0 -5 15
        }
      }
    }
  }
  JOINT pelvis_left_femur
  {
    OFFSET 10.78128 -3.44521 -0.5502486
    CHANNELS 3 Zrotation Xrotation Yrotation
    JOINT left_femur_tibia
    {
      OFFSET 0.8047443 -44.0398 -0.1307829
      CHANNELS 3 Zrotation Xrotation Yrotation
      JOINT left_tibia_foot
      {
        OFFSET -4.370144 -48.10324 -4.275266
        CHANNELS 3 Zrotation Xrotation Yrotation
        End Site
        {
          OFFSET 0 -5 15
        }
      }
    }
  }
  JOINT pelvis_spine1
  {
    OFFSET 0 6.468898 -3.129235
    CHANNELS 3 Zrotation Xrotation Yrotation
    JOINT spine1
    {
      OFFSET 0 23.15396 4.99043
      CHANNELS 3 Zrotation Xrotation Yrotation
      JOINT spine2
      {
        OFFSET 0 20.79997 -5.064912
        CHANNELS 3 Zrotation Xrotation Yrotation
        JOINT neck
        {
          OFFSET 0 14.38658 9.616178
          CHANNELS 3 Zrotation Xrotation Yrotation
          End Site
          {
            OFFSET 0 20 0
          }
        }
      }
      JOINT right_manubrium
      {
        OFFSET -5.722621 16.35077 3.967754
        CHANNELS 3 Zrotation Xrotation Yrotation
        JOINT right_clavicle
        {
          OFFSET -13.16364 1.694482 -4.693211
          CHANNELS 3 Zrotation Xrotation Yrotation
          JOINT right_humerus
          {
            OFFSET -28.5034 -0.3100689 -2.792744
            CHANNELS 3 Zrotation Xrotation Yrotation
            JOINT right_radius
            {
              OFFSET -25.15693 0.02248979 -1.271978
              CHANNELS 3 Zrotation Xrotation Yrotation
              End Site
              {
                OFFSET -15 0 0
              }
            }
          }
        }
      }
      JOINT left_manubrium
      {
        OFFSET 5.722621 16.35077 3.967754
        CHANNELS 3 Zrotation Xrotation Yrotation
        JOINT left_clavicle
        {
          OFFSET 13.16364 1.694482 -4.693211
          CHANNELS 3 Zrotation Xrotation Yrotation
          JOINT left_humerus
          {
            OFFSET 29.39168 -1.063119 -2.237045
            CHANNELS 3 Zrotation Xrotation Yrotation
            JOINT left_radius
            {
              OFFSET 24.59957 -0.9528479 0.9047498
              CHANNELS 3 Zrotation Xrotation Yrotation
              End Site
              {
                OFFSET 15 -0 -0
              }
            }
          }
        }
      }
    }
  }
}
MOTION
Frames: 23
Frame Time: 0.0416666666667
-1600.617 103.284 870.3245 -4.018734 4.233058 -128.4353 6.232335 -20.61304 -3.187053 -0 8.580963 -0 -11.78481 6.313815 -1.352939 -3.618458 13.77496 -7.410523 -0 37.42722 -0 1.709945 -13.01917 14.16552 -1.645397 0.2333129 4.177064 1.631642 11.36287 -8.417288 0.4819568 20.474 8.41919 3.338732 -19.74107 7.792642 4.807641 -15.36674 11.96245 88.76085 33.5919 -21.99951 -0 0 8.094525 -27.69102 19.83157 14.68622 4.852672 -22.55102 -4.515871 -83.337 21.02865 11.27132 0 0 -27.18593 0.9565545 7.248312 14.24068
-1605.338 103.9703 866.15 -4.199719 4.778717 -128.9573 7.126733 -17.0092 -2.324007 -0 10.58677 -0 -12.44046 5.016406 -1.513237 -2.971641 10.67493 -6.99041 -0 44.18364 -0 1.540212 -10.04441 13.75868 -1.676342 0.3306535 4.676244 1.251072 11.27508 -7.845109 0.491727 20.59718 8.46785 3.454894 -19.42386 7.716908 4.872541 -15.94583 12.02536 87.42756 33.82223 -20.18169 -0 0 9.59988 -28.62304 19.729 15.26315 4.670111 -21.87984 -4.499232 -84.15633 21.52769 12.91899 0 0 -26.11375 0.01228105 7.15232 15.39545
-1609.829 104.9651 862.1246 -4.536467 5.286704 -129.578 7.696766 -12.7534 -1.747705 -0 11.88812 -0 -13.14782 3.295695 -1.413686 -2.276674 6.356414 -6.514219 -0 49.52018 -0 1.452161 -7.380899 13.73729 -1.71634 0.4281907 5.264652 0.7854605 11.12436 -7.140438 0.5461396 20.75534 8.488599 3.550881 -18.98821 7.669175 4.925919 -16.61589 12.08674 85.79752 34.02332 -17.91865 -0 0 11.45279 -29.70962 19.70961 15.92343 4.468424 -21.0534 -4.454493 -85.13032 22.12892 14.80643 0 0 -24.87728 -1.111642 7.11896 16.71402
-1614.037 106.0267 858.328 -4.906879 5.706887 -130.2991 8.007131 -8.226431 -1.458887 -0 12.09233 -0 -13.71401 1.102657 -1.125952 -1.48215 1.075029 -5.903706 -0 52.34587 -0 1.514374 -5.316872 14.08481 -1.762478 0.5131361 5.918077 0.2536486 10.90662 -6.330453 0.655693 20.942 8.465361 3.607362 -18.4348 7.661183 4.95564 -17.35034 12.1407 83.93918 34.14123 -15.28726 -0 0 13.60264 -30.89527 19.80524 16.63133 4.257763 -20.10178 -4.379651 -86.22501 22.8089 16.84642 0 0 -23.54287 -2.377668 7.167475 18.13583
-1617.982 106.8969 854.7886 -5.160918 5.994346 -131.1073 8.134589 -3.788758 -1.398906 -0 11.20822 -0 -14.00142 -1.552998 -0.7661797 -0.5275447 -4.688705 -5.123872 -0 51.86953 -0 1.771664 -3.948163 14.66628 -1.810093 0.5733482 6.600925 -0.3124882 10.6272 -5.459317 0.8221397 21.14688 8.387766 3.611182 -17.79088 7.698971 4.953447 -18.11666 12.18212 81.96374 34.1355 -12.42606 -0 0 15.95426 -32.09467 20.02278 17.34037 4.04823 -19.07349 -4.274739 -87.39979 23.53716 18.94337 0 0 -22.17529 -3.724197 7.311678 19.58296
-1621.752 107.3685 851.479 -5.189714 6.120249 -131.9705 8.119273 0.3165685 -1.45696 -0 9.659324 -0 -13.96367 -4.580209 -0.4649667 0.5937886 -10.29145 -4.232325 -0 47.94701 -0 2.206902 -3.167107 15.30379 -1.853493 0.6002887 7.266298 -0.8692667 10.30412 -4.58812 1.035097 21.35647 8.254592 3.559937 -17.1103 7.778517 4.917585 -18.87497 12.20725 80.02128 33.99388 -9.53777 -0 0 18.3618 -33.19435 20.33587 17.99129 3.849773 -18.03679 -4.144765 -88.60418 24.27523 20.99291 0 0 -20.83554 -5.06549 7.554233 20.9637
-1625.468 107.3364 848.3295 -4.985746 6.087122 -132.8412 7.948518 3.999458 -1.496381 -0 8.141951 -0 -13.63883 -7.775569 -0.3263181 1.771926 -15.07104 -3.400476 -0 41.22674 -0 2.733003 -2.749648 15.87317 -1.887571 0.591868 7.863349 -1.368891 9.967271 -3.785498 1.272197 21.55595 8.075538 3.464472 -16.46394 7.884111 4.854077 -19.58209 12.21456 78.27144 33.74037 -6.856153 -0 0 20.64727 -34.07096 20.6854 18.51847 3.671821 -17.0702 -4.000097 -89.78032 24.97758 22.89181 0 0 -19.57315 -6.300797 7.88188 22.18271
-1629.243 106.8149 845.249 -4.652414 5.937131 -133.6691 7.580379 7.283425 -1.408886 -0 7.37921 -0 -13.12107 -10.79005 -0.3821418 2.776246 -18.51645 -2.876353 -0 32.99107 -0 3.23233 -2.481309 16.35886 -1.909522 0.5533513 8.349345 -1.771054 9.65197 -3.111922 1.504142 21.73173 7.870009 3.346562 -15.9223 7.992291 4.775419 -20.19924 12.20529 76.84159 33.42831 -4.588722 -0 0 22.63896 -34.62411 20.99447 18.86635 3.52254 -16.24518 -3.853749 -90.86971 25.59651 24.55259 0 0 -18.42135 -7.332605 8.26549 23.15667
-1633.166 105.9232 842.1461 -4.354447 5.740705 -134.418 6.984821 10.2302 -1.169624 -0 7.886529 -0 -12.53493 -13.14033 -0.5648642 3.340844 -20.38736 -2.884446 -0 24.76744 -0 3.610972 -2.242266 16.83666 -1.919641 0.49556 8.699643 -2.052523 9.389102 -2.605714 1.702951 21.87401 7.662738 3.231858 -15.53731 8.080247 4.696865 -20.69878 12.18334 75.79733 33.12113 -2.866912 -0 0 24.21037 -34.8086 21.19308 19.00822 3.407889 -15.60964 -3.717295 -91.82047 26.09121 25.91403 0 0 -17.40002 -8.087885 8.666482 23.83038
-1637.291 104.8493 838.9429 -4.240743 5.567269 -135.0749 6.172027 12.87405 -0.8501674 -0 9.85022 -0 -12.01484 -14.31059 -0.723906 3.291828 -20.73548 -3.515793 -0 17.88687 -0 3.82514 -2.020819 17.40462 -1.920767 0.4313542 8.909943 -2.209704 9.197195 -2.278173 1.849135 21.97819 7.477935 3.141824 -15.33222 8.133728 4.632088 -21.06613 12.1539 75.14078 32.87249 -1.730365 -0 0 25.2992 -34.64585 21.23948 18.95502 3.330916 -15.1811 -3.598062 -92.59265 26.43743 26.94289 0 0 -16.52378 -8.532435 9.046549 24.18604
-1641.645 103.8082 835.5856 -4.385109 5.457021 -135.6453 5.194359 15.18578 -0.5780587 -0 13.15151 -0 -11.68698 -13.91743 -0.6840658 2.618411 -19.83401 -4.691098 -0 13.16798 -0 3.874611 -1.87687 18.11206 -1.916852 0.3722343 8.990956 -2.254004 9.080428 -2.118862 1.934427 22.04466 7.334529 3.088906 -15.30297 8.149975 4.590299 -21.29737 12.12188 74.83166 32.71615 -1.146702 -0 0 25.90104 -34.20842 21.12759 18.74793 3.291748 -14.9514 -3.498854 -93.16032 26.63188 27.62845 0 0 -15.80866 -8.671601 9.375532 24.24134
-1646.228 103.0012 832.0517 -4.771848 5.412043 -136.1395 4.129696 17.06451 -0.4751345 -0 17.48691 -0 -11.65645 -11.8442 -0.3111174 1.445306 -18.06118 -6.21801 -0 10.82634 -0 3.787226 -1.892931 18.92805 -1.911505 0.3263354 8.960112 -2.203939 9.032316 -2.106091 1.959978 22.07708 7.24414 3.076278 -15.42792 8.135382 4.575578 -21.39491 12.09089 74.81445 32.66624 -1.047667 -0 0 26.04771 -33.59002 20.88026 18.44096 3.288332 -14.89816 -3.419487 -93.51046 26.68869 27.97422 0 0 -15.27412 -8.538848 9.634474 24.03765
-1651.004 102.5843 828.3542 -5.321137 5.407913 -136.5616 3.061064 18.34778 -0.6148758 -0 22.49304 -0 -11.99737 -8.275375 0.4509941 -0.04331663 -15.78839 -7.880146 -0 10.58429 -0 3.611816 -2.139139 19.75595 -1.907107 0.2979505 8.834717 -2.078184 9.041599 -2.216723 1.932429 22.08006 7.21159 3.100458 -15.67899 8.100887 4.587814 -21.36385 12.063 75.03901 32.72271 -1.36145 -0 0 25.78438 -32.87852 20.53639 18.0846 3.317516 -14.99605 -3.358693 -93.63929 26.63082 27.99001 0 0 -14.94174 -8.179782 9.814489 23.62485
-1655.906 102.6471 824.542 -5.92901 5.412752 -136.9043 2.061159 18.83298 -1.011895 -0 27.80684 -0 -12.73835 -3.642709 1.575886 -1.662763 -13.30596 -9.49421 -0 11.8643 -0 3.416687 -2.65994 20.47306 -1.90453 0.2879631 8.628286 -1.891599 9.097069 -2.432166 1.860347 22.05741 7.236598 3.154381 -16.02948 8.057998 4.624137 -21.20961 12.03908 75.4709 32.877 -2.031739 -0 0 25.15401 -32.14152 20.13936 17.71673 3.375993 -15.22428 -3.315544 -93.54809 26.48168 27.68611 0 0 -14.83359 -7.639312 9.913971 23.04952
-1660.843 103.2005 820.6931 -6.499461 5.400888 -137.1495 1.18239 18.31001 -1.632124 -0 33.04933 -0 -13.84179 1.463791 2.962065 -3.250939 -10.79425 -10.92523 -0 13.95855 -0 3.282418 -3.47646 20.97098 -1.903247 0.2944853 8.349712 -1.654108 9.189989 -2.740399 1.752205 22.01133 7.315321 3.229493 -16.45723 8.016585 4.680082 -20.93723 12.01932 76.09327 33.11549 -3.023683 -0 0 24.19133 -31.42318 19.7308 17.36054 3.460805 -15.56938 -3.290236 -93.24028 26.26016 27.07075 0 0 -14.9713 -6.955421 9.936208 22.34936
-1665.708 104.1725 816.9029 -6.961653 5.357175 -137.275 0.4518226 16.61097 -2.411595 -0 37.76579 -0 -15.18577 6.392874 4.438284 -4.671996 -8.329275 -12.08178 -0 16.14709 -0 3.283769 -4.594425 21.1864 -1.901595 0.3133451 8.004359 -1.371536 9.314425 -3.135065 1.615868 21.9424 7.441165 3.316681 -16.94409 7.98418 4.750225 -20.55207 12.00352 76.90335 33.42052 -4.320442 -0 0 22.92445 -30.74758 19.34865 17.0264 3.569346 -16.02451 -3.284313 -92.72124 25.97939 26.15134 0 0 -15.37484 -6.158958 9.888208 21.5533
-1670.396 105.4144 813.2642 -7.276229 5.275104 -137.2643 -0.1269362 13.67705 -3.28123 -0 41.3794 -0 -16.5699 10.54569 5.782403 -5.820449 -5.907728 -12.91013 -0 17.79873 -0 3.465605 -6.009435 21.12113 -1.897121 0.3384733 7.596429 -1.047597 9.46626 -3.612588 1.459013 21.85023 7.604934 3.406507 -17.47357 7.966034 4.828423 -20.06178 11.99141 77.90515 33.76981 -5.913205 -0 0 21.38218 -30.12457 19.02743 16.71531 3.698895 -16.58619 -3.300375 -92.00094 25.64799 24.93974 0 0 -16.05941 -5.2772 9.780502 20.68524
-1674.826 106.7203 809.8423 -7.435013 5.15308 -137.1198 -0.5644498 9.623122 -4.193108 -0 43.22639 -0 -17.76976 13.50701 6.782498 -6.633829 -3.482712 -13.3936 -0 18.48751 -0 3.824483 -7.704917 20.84855 -1.887081 0.3625095 7.132202 -0.6866032 9.641567 -4.167854 1.289833 21.73455 7.794816 3.489413 -18.02791 7.965337 4.908001 -19.47939 11.98281 79.09876 34.13557 -7.786152 -0 0 19.60441 -29.55626 18.79799 16.42313 3.845802 -17.24907 -3.341231 -91.09902 25.27276 23.46095 0 0 -17.02867 -4.339073 9.62724 19.76959
-1678.954 107.8643 806.6513 -7.45396 4.99186 -136.8731 -0.8732288 4.760048 -5.131261 -0 42.72422 -0 -18.62751 15.15143 7.329985 -7.107241 -1.00522 -13.55388 -0 18.10463 -0 4.30837 -9.641959 20.4984 -1.869158 0.3779915 6.623623 -0.2964891 9.83486 -4.789081 1.117429 21.59679 7.996879 3.556545 -18.58584 7.983195 4.982268 -18.82662 11.97774 80.46689 34.48576 -9.898444 -0 0 17.65305 -29.0434 18.68494 16.14513 4.004534 -17.99953 -3.408593 -90.051 24.86244 21.7639 0 0 -18.2645 -3.380166 9.445795 18.83702
-1682.788 108.6504 803.6458 -7.359091 4.795274 -136.5847 -1.056221 -0.4608217 -6.089758 -0 39.64455 -0 -19.10436 15.65602 7.4667 -7.293775 1.537791 -13.44724 -0 16.89601 -0 4.839705 -11.74473 20.21532 -1.842344 0.3792505 6.091098 0.1086719 10.03779 -5.453239 0.9513517 21.44173 8.196606 3.60154 -19.12237 8.018255 5.04566 -18.13614 11.97651 81.96181 34.78917 -12.16839 -0 0 15.61891 -28.59038 18.70083 15.88038 4.166945 -18.80983 -3.501559 -88.91294 24.432 19.93058 0 0 -19.71565 -2.445654 9.255311 17.92894
-1686.381 108.9578 800.7344 -7.17118 4.575105 -136.3309 -1.095302 -5.569801 -7.026981 -0 34.34157 -0 -19.24001 15.38797 7.322519 -7.280168 4.104161 -13.15007 -0 15.37013 -0 5.351851 -13.88898 20.10311 -1.80769 0.3645712 5.563972 0.5078391 10.23881 -6.124138 0.8001844 21.27863 8.381532 3.622917 -19.61136 8.066301 5.095392 -17.45093 11.97959 83.49913 35.02471 -14.46803 -0 0 13.61967 -28.20758 18.839 15.63489 4.322274 -19.63542 -3.615441 -87.76139 24.00665 18.07836 0 0 -21.29074 -1.589291 9.074288 17.0984
-1689.812 108.7668 797.8096 -6.898001 4.356156 -136.1806 -0.9441422 -10.20236 -7.835721 -0 27.74532 -0 -19.07452 14.72223 6.999509 -7.147297 6.604429 -12.73741 -0 14.10562 -0 5.81565 -15.90273 20.18111 -1.768502 0.3375758 5.077494 0.8748468 10.42415 -6.755136 0.6697285 21.12115 8.544104 3.625817 -20.03047 8.120503 5.132854 -16.81973 11.9875 84.96463 35.19116 -16.63532 -0 0 11.78626 -27.91042 19.06952 15.42237 4.458177 -20.41809 -3.741538 -86.68581 23.62344 16.35031 0 0 -22.86293 -0.8679316 8.918101 16.40627
-1693.16 108.1542 794.7782 -6.535785 4.173014 -136.1764 -0.5384785 -14.15601 -8.36423 -0 21.07013 -0 -18.62571 13.90181 6.516176 -6.940201 8.925074 -12.26581 -0 13.55974 -0 6.235651 -17.58734 20.37424 -1.729694 0.3067347 4.666569 1.182773 10.57951 -7.296625 0.5619488 20.98558 8.683275 3.621519 -20.36589 8.172905 5.163742 -16.28894 12.00054 86.23533 35.31112 -18.50328 -0 0 10.24056 -27.71561 19.34347 15.26174 4.562705 -21.09517 -3.868326 -85.77431 23.32874 14.89282 0 0 -24.28983 -0.3334153 8.797845 15.91306
